# xmcd CD database file
#
# Track frame offsets:
#	150
#	48101
#	84935
#	122180
#	166271
#	200644
#	248895
#	270529
#
# Disc length: 3895 seconds
#
# Revision: 0
# Processed by: cddbd v1.5.2PL0 Copyright (c) Steve Scherf et al.
# Submitted via: CDex 1.70beta2
#
DISCID=640f3508
DTITLE=David Murray and the Gwo Ka Masters - The Devil Tried to Kill Me
DYEAR=2007
DGENRE=Jazz
TTITLE0=Kiama for Obama
TTITLE1=Africa
TTITLE2=Southern Skies
TTITLE3=The Devil Tried to Kill Me
TTITLE4=Congo
TTITLE5=Canto Oneguine
TTITLE6=Southern Skies (Radio Edit)
TTITLE7=Africa (Radio Edit)
EXTD=YEAR: 2007
EXTT0=
EXTT1=
EXTT2=
EXTT3=
EXTT4=
EXTT5=
EXTT6=
EXTT7=
PLAYORDER=
